<?xml version="1.0" standalone="no"?>
<!DOCTYPE svg PUBLIC "-//W3C//DTD SVG 20010904//EN"
 "http://www.w3.org/TR/2001/REC-SVG-20010904/DTD/svg10.dtd">
<svg version="1.0" xmlns="http://www.w3.org/2000/svg"
 width="200.000000pt" height="200.000000pt" viewBox="0 0 200.000000 200.000000"
 preserveAspectRatio="xMidYMid meet">

<g transform="translate(0.000000,200.000000) scale(0.100000,-0.100000)"
fill="#000000" stroke="none">
<path d="M346 1444 c-11 -10 -16 -34 -16 -69 0 -69 15 -85 81 -85 42 0 49 -3
49 -20 0 -17 -7 -20 -45 -20 l-45 0 0 -79 c0 -70 -2 -79 -20 -84 -12 -3 -20
-14 -20 -26 0 -14 -6 -21 -20 -21 -19 0 -20 7 -20 125 l0 125 -125 0 -125 0 0
-290 0 -290 125 0 125 0 0 125 c0 118 1 125 20 125 14 0 20 -7 20 -21 0 -12 8
-23 20 -26 18 -5 20 -14 20 -84 l0 -79 45 0 c38 0 45 -3 45 -20 0 -17 -7 -20
-49 -20 -66 0 -81 -16 -81 -85 0 -82 6 -85 170 -85 164 0 170 3 170 85 0 69
-15 85 -81 85 -42 0 -49 3 -49 20 0 19 7 20 165 20 l166 0 76 51 c104 71 188
108 258 115 l60 6 62 -104 61 -103 -40 -6 c-49 -7 -58 -20 -58 -86 0 -80 7
-83 169 -83 93 0 141 4 149 12 16 16 16 130 0 146 -7 7 -34 12 -60 12 l-48 0
0 105 0 105 105 0 105 0 0 -145 c0 -138 -1 -145 -20 -145 -15 0 -20 -7 -20
-25 l0 -26 123 3 122 3 3 168 c2 159 3 167 22 167 18 0 20 7 20 80 0 73 -2 80
-20 80 -19 0 -20 8 -22 168 l-3 167 -122 3 c-115 2 -123 1 -123 -17 0 -10 9
-21 20 -24 19 -5 20 -14 20 -151 l0 -146 -105 0 -105 0 0 105 0 105 48 0 c26
0 53 5 60 12 16 16 16 130 0 146 -8 8 -56 12 -149 12 -162 0 -169 -3 -169 -83
0 -66 9 -79 58 -86 l40 -6 -61 -103 -62 -104 -57 6 c-70 7 -160 46 -261 115
l-76 51 -166 0 c-158 0 -165 1 -165 20 0 17 7 20 49 20 66 0 81 16 81 85 0 82
-6 85 -170 85 -113 0 -142 -3 -154 -16z m274 -69 l0 -46 -122 3 -123 3 -3 28
c-7 55 -3 57 128 57 l120 0 0 -45z m960 0 l0 -46 -122 3 -123 3 -3 28 c-7 55
-3 57 128 57 l120 0 0 -45z m290 -145 l0 -150 -60 0 -60 0 0 150 0 150 60 0
60 0 0 -150z m-1620 -230 l0 -250 -85 0 -85 0 0 250 0 250 85 0 85 0 0 -250z
m1166 93 c-5 -13 -96 -20 -96 -7 0 7 67 121 84 143 8 11 12 -2 14 -54 2 -37 1
-74 -2 -82z m-697 112 c-3 -2 -65 -23 -138 -45 -73 -23 -139 -44 -147 -47 -11
-4 -14 6 -14 46 l0 51 152 0 c83 0 149 -2 147 -5z m111 -70 l0 -54 -77 -3 -78
-3 0 -75 0 -75 78 -3 77 -3 0 -54 c0 -30 -3 -55 -7 -55 -5 0 -107 31 -228 69
l-220 69 0 52 0 52 215 68 c118 37 221 68 228 69 8 1 12 -16 12 -54z m114 16
c34 -22 93 -55 131 -73 l70 -33 388 -3 387 -3 0 -39 0 -39 -387 -3 -388 -3
-78 -37 c-42 -21 -101 -53 -131 -73 -29 -19 -56 -35 -60 -35 -4 0 -6 24 -4 53
l3 52 70 3 c38 2 75 8 82 14 17 14 17 122 0 136 -7 6 -44 12 -82 14 l-70 3 -3
53 c-2 28 0 52 4 52 4 0 35 -18 68 -39z m56 -151 l0 -40 -145 0 -145 0 0 40 0
40 145 0 145 0 0 -40z m418 -163 c2 -46 -1 -76 -6 -73 -10 6 -92 141 -92 151
0 3 21 5 48 3 l47 -3 3 -78z m452 -62 l0 -145 -60 0 -60 0 0 145 0 145 60 0
60 0 0 -145z m-1289 65 c73 -22 135 -43 138 -45 2 -3 -64 -5 -147 -5 l-152 0
0 51 c0 40 3 50 14 46 8 -3 74 -24 147 -47z m39 -215 l0 -46 -122 3 -123 3 -3
28 c-7 55 -3 57 128 57 l120 0 0 -45z m960 0 l0 -46 -122 3 -123 3 -3 28 c-7
55 -3 57 128 57 l120 0 0 -45z"/>
</g>
</svg>
